#!OML:ASF F:\VICON\USERDATA\INSTALL\rory3\rory3.ASF
:FULLY-SPECIFIED
:DEGREES
19
root -0.6419760317479691 17.68320093248506 -13.63869065038759 -1.443402326311638 6.873764402984101 -3.8860754810843834
lfemur -23.751495920870408 -3.5018230004608584 -21.614798867659587
ltibia 40.959604633339474
lfoot -11.770491996728364 -10.71139388743888
ltoes -1.5494390239154843
rfemur -7.6380753301989905 -2.109073517608749 27.04960375529271
rtibia 96.09898865247399
rfoot 21.073189087599005 -13.16358962457693
rtoes 16.75529106259753
lowerback 16.497294635484977 1.0708685913804965 2.7687665359482985
upperback -0.08104018777185096 2.0672180383900507 1.1520152444739202
thorax -9.314926447008249 0.8915203793086182 -0.8248265632379427
lowerneck -18.957109094300737 -5.346237068944437 -1.6914257463877636
upperneck 15.2428908125415 -7.620285747627456 4.051617609656949
head 8.059281610746092 -3.300166925302631 0.6760169325131471
lclavicle -1.7288339579140553e-15 1.783627740629379e-15
lhumerus -61.08469310126232 -12.545202548319788 100.14099148708108
lradius 104.07300444904128
lwrist 33.45060031305122
lhand -25.856195481089546 0.7974909758354536
lfingers 7.12502
lthumb 0.684611519400963 30.77610395177544
rclavicle -1.7288339579140553e-15 1.783627740629379e-15
rhumerus -48.45430221697046 14.403489815674888 -101.75298744529049
rradius 104.67300786406638
rwrist -7.877918230301855
rhand -19.721584468400557 40.739094005457744
rfingers 7.12502
rthumb 6.608565532168662 10.86219468936517
20
root -0.6466339103870664 17.47490431414389 -12.685891039268492 -1.142003884183656 6.63226503288362 -2.5196102223006083
lfemur -22.37229655418441 -3.797762318587235 -23.29889628152626
ltibia 45.081003001255546
lfoot -17.15248826865023 -7.689818902664648
ltoes 2.0965073225176187
rfemur -13.30770288516755 -3.7861098897905276 23.90240920158558
rtibia 102.40698647708163
rfoot 20.9978891398462 -9.95280439973143
rtoes 15.041692191438207
lowerback 16.84359273138025 1.0303288417645033 0.9001372992779871
upperback 0.15045853836227496 1.6215396971318086 0.8064198388995274
thorax -9.309296525011272 0.7562996184504949 -0.03689989538283012
lowerneck -19.70270474383185 -5.254087752484087 -1.3674711134684912
upperneck 15.087891778435758 -7.553946082323309 3.969378362841346
head 8.117170200135464 -3.248607496699133 0.5904370412084002
lclavicle -1.7288340642170575e-15 1.7836277577894746e-15
lhumerus -56.90879589786926 -14.232599849969652 100.17699136519632
lradius 104.53000395767764
lwrist 34.90129571553891
lhand -24.961000402569145 0.056295737182686656
lfingers 7.12502
lthumb 1.5492695971520145 30.030406436413436
rclavicle -1.7288340642170575e-15 1.7836277577894746e-15
rhumerus -49.23730147087694 13.324791676259078 -101.86498716016362
rradius 101.65501299726837
rwrist -6.520573173385253
rhand -22.246571700123983 37.443715014804695
rfingers 7.12502
rthumb 4.170698307340958 7.504846518230566
21
root -0.6818981604753042 17.062894599130267 1.0950936961811486 0.804639813389247 6.150509180322008 -0.08518814333339408
lfemur -17.951976973669456 -3.0526762005433974 -25.631856436044394
ltibia 46.317323027577146
lfoot -21.754088222731877 -1.168027165473255
ltoes 1.7543261647830164
rfemur -20.6729122581913 -6.852796958018869 20.60739594073702
rtibia 108.75989320610424
rfoot 18.054479897401805 -7.762428443593015
rtoes 24.457342472618397
lowerback 18.031706790840914 1.4312561682712959 -1.4172322530478711
upperback 0.10499025839463583 1.5066375889673789 -0.04542562802815442
thorax -9.759893289556693 0.7693057634401478 0.6427995670347689
lowerneck -20.828666905375613 -5.065917549407453 -1.5978411754531023
upperneck 14.203704581228797 -7.153910493163444 3.900081020489247
head 8.107170740420125 -3.048507783485385 0.8337934485024145
lclavicle -1.728834037052105e-15 1.783627731992921e-15
lhumerus -50.96286429694599 -16.823516965158518 99.22406579345622
lradius 105.71544665154207
lwrist 35.10945099669357
lhand -25.81353598363813 1.65226495862592
lfingers 7.12502
lthumb 0.8259466623428842 31.719189208375898
rclavicle -1.7288340367393953e-15 1.7836277322204432e-15
rhumerus -50.39794159395933 9.815032839238992 -102.58590574132528
rradius 99.78277543218141
rwrist -6.109447992662146
rhand -17.796604210488503 39.087293290809725
rfingers 7.12502
rthumb 7.885890912087 9.19980449835201
22
root -0.7125240402630321 16.822611522215524 1.318327649517725 1.9326987539921003 5.491188129133671 1.1763311915476002
lfemur -14.82430814433162 -3.033063920132284 -27.34982132442907
ltibia 46.489435811383785
lfoot -24.93853235123166 3.5161052044250622
ltoes -2.181278997230555
rfemur -28.596135948325013 -7.810769934923185 18.913476329522208
rtibia 113.58706158134595
rfoot 15.76623909378064 -5.688912608195163
rtoes 23.147140656898614
lowerback 18.065512107489933 1.3745366662618097 -2.902733066912
upperback 0.15460186200009352 1.1920513750634014 -0.5294843428694458
thorax -9.961869445211182 0.6743316078775227 1.3185732967879176
lowerneck -21.358618111120155 -4.701220817830307 -1.6730953453517687
upperneck 13.594776386459827 -6.552241767375974 3.942334978166233
head 7.927737568874998 -2.7927494769372525 0.905397728272821
lclavicle -1.7288340370573392e-15 1.7836277319899704e-15
lhumerus -45.475055305518616 -18.733740514530428 98.1533360778564
lradius 106.74427961047304
lwrist 34.426806846320865
lhand -26.263960480350423 2.7139861266484604
lfingers 7.12502
lthumb 0.42580521564465523 32.799935764536286
rclavicle -1.7288340367411698e-15 1.7836277322200654e-15
rhumerus -51.760530857430204 7.615290855722577 -102.79025784792893
rradius 99.08219686640557
rwrist -6.57943880829429
rhand -17.385167050564178 38.94352470575966
rfingers 7.12502
rthumb 8.3013411731329 9.25130591738916
